<mxfile host="app.diagrams.net" modified="2024-02-08T22:30:15.864Z" agent="Mozilla/5.0 (Windows NT 10.0; Win64; x64) AppleWebKit/537.36 (KHTML, like Gecko) Chrome/120.0.0.0 Safari/537.36 OPR/106.0.0.0" etag="opvY2ysmK32BMGxQHdd6" version="23.1.2" type="device">
  <diagram name="Page-1" id="Gjb4Uc7otWtmMrmFveYx">
    <mxGraphModel dx="1009" dy="550" grid="1" gridSize="10" guides="1" tooltips="1" connect="1" arrows="1" fold="1" page="1" pageScale="1" pageWidth="850" pageHeight="1100" math="0" shadow="0">
      <root>
        <mxCell id="0" />
        <mxCell id="1" parent="0" />
        <mxCell id="tRqA5FIJqz56UV0_KaKd-1" value="&lt;font color=&quot;#f2f2f2&quot; style=&quot;font-size: 30px;&quot; face=&quot;Courier New&quot;&gt;Opt A&lt;/font&gt;" style="rounded=0;whiteSpace=wrap;html=1;fillColor=#141414;strokeColor=#FFFFFF;strokeWidth=1;" vertex="1" parent="1">
          <mxGeometry x="60" y="140" width="120" height="60" as="geometry" />
        </mxCell>
        <mxCell id="tRqA5FIJqz56UV0_KaKd-2" value="&lt;font color=&quot;#f2f2f2&quot; style=&quot;font-size: 30px;&quot; face=&quot;Courier New&quot;&gt;Opt B&lt;/font&gt;" style="rounded=0;whiteSpace=wrap;html=1;fillColor=#141414;strokeColor=#FFFFFF;strokeWidth=1;" vertex="1" parent="1">
          <mxGeometry x="180" y="140" width="120" height="60" as="geometry" />
        </mxCell>
        <mxCell id="tRqA5FIJqz56UV0_KaKd-3" value="&lt;font color=&quot;#f2f2f2&quot; style=&quot;font-size: 30px;&quot; face=&quot;Courier New&quot;&gt;Opt C&lt;/font&gt;" style="rounded=0;whiteSpace=wrap;html=1;fillColor=#141414;strokeColor=#FFFFFF;strokeWidth=1;" vertex="1" parent="1">
          <mxGeometry x="300" y="140" width="120" height="60" as="geometry" />
        </mxCell>
        <mxCell id="tRqA5FIJqz56UV0_KaKd-4" value="&lt;font color=&quot;#f2f2f2&quot; style=&quot;font-size: 30px;&quot; face=&quot;Courier New&quot;&gt;Opt D&lt;/font&gt;" style="rounded=0;whiteSpace=wrap;html=1;fillColor=#141414;strokeColor=#FFFFFF;strokeWidth=1;" vertex="1" parent="1">
          <mxGeometry x="420" y="140" width="120" height="60" as="geometry" />
        </mxCell>
        <mxCell id="tRqA5FIJqz56UV0_KaKd-5" value="&lt;font color=&quot;#f2f2f2&quot; style=&quot;font-size: 30px;&quot; face=&quot;Courier New&quot;&gt;Opt E&lt;/font&gt;" style="rounded=0;whiteSpace=wrap;html=1;fillColor=#141414;strokeColor=#FFFFFF;strokeWidth=1;" vertex="1" parent="1">
          <mxGeometry x="540" y="140" width="120" height="60" as="geometry" />
        </mxCell>
        <mxCell id="tRqA5FIJqz56UV0_KaKd-6" value="&lt;font style=&quot;font-size: 27px;&quot;&gt;3&lt;/font&gt;" style="rounded=0;whiteSpace=wrap;html=1;fillColor=#141414;strokeColor=#FFFFFF;strokeWidth=1;fontFamily=Georgia;fontSize=27;fontColor=#F0F0F0;" vertex="1" parent="1">
          <mxGeometry x="60" y="80" width="120" height="60" as="geometry" />
        </mxCell>
        <mxCell id="tRqA5FIJqz56UV0_KaKd-7" value="0" style="rounded=0;whiteSpace=wrap;html=1;fillColor=#141414;strokeColor=#FFFFFF;strokeWidth=1;fontFamily=Georgia;fontSize=27;fontColor=#F0F0F0;" vertex="1" parent="1">
          <mxGeometry x="180" y="80" width="120" height="60" as="geometry" />
        </mxCell>
        <mxCell id="tRqA5FIJqz56UV0_KaKd-8" value="2" style="rounded=0;whiteSpace=wrap;html=1;fillColor=#141414;strokeColor=#FFFFFF;strokeWidth=1;fontFamily=Georgia;fontSize=27;fontColor=#F0F0F0;" vertex="1" parent="1">
          <mxGeometry x="300" y="80" width="120" height="60" as="geometry" />
        </mxCell>
        <mxCell id="tRqA5FIJqz56UV0_KaKd-9" value="4" style="rounded=0;whiteSpace=wrap;html=1;fillColor=#141414;strokeColor=#FFFFFF;strokeWidth=1;fontFamily=Georgia;fontSize=27;fontColor=#F0F0F0;" vertex="1" parent="1">
          <mxGeometry x="420" y="80" width="120" height="60" as="geometry" />
        </mxCell>
        <mxCell id="tRqA5FIJqz56UV0_KaKd-10" value="1" style="rounded=0;whiteSpace=wrap;html=1;fillColor=#141414;strokeColor=#FFFFFF;strokeWidth=1;fontFamily=Georgia;fontSize=27;fontColor=#F0F0F0;" vertex="1" parent="1">
          <mxGeometry x="540" y="80" width="120" height="60" as="geometry" />
        </mxCell>
        <mxCell id="tRqA5FIJqz56UV0_KaKd-12" value="&lt;font style=&quot;font-size: 23px;&quot; face=&quot;Georgia&quot; color=&quot;#fcfcfc&quot;&gt;3&lt;/font&gt;" style="rounded=0;whiteSpace=wrap;html=1;fillColor=#141414;strokeColor=#FF0505;strokeWidth=1;" vertex="1" parent="1">
          <mxGeometry x="60" y="260" width="120" height="60" as="geometry" />
        </mxCell>
        <mxCell id="tRqA5FIJqz56UV0_KaKd-17" value="&lt;font style=&quot;font-size: 23px;&quot; face=&quot;Georgia&quot; color=&quot;#fcfcfc&quot;&gt;0&lt;/font&gt;" style="rounded=0;whiteSpace=wrap;html=1;fillColor=#141414;strokeColor=#FF0505;strokeWidth=1;" vertex="1" parent="1">
          <mxGeometry x="180" y="260" width="120" height="60" as="geometry" />
        </mxCell>
        <mxCell id="tRqA5FIJqz56UV0_KaKd-18" value="&lt;font style=&quot;font-size: 23px;&quot; face=&quot;Georgia&quot; color=&quot;#fcfcfc&quot;&gt;2&lt;/font&gt;" style="rounded=0;whiteSpace=wrap;html=1;fillColor=#141414;strokeColor=#FF0505;strokeWidth=1;" vertex="1" parent="1">
          <mxGeometry x="300" y="260" width="120" height="60" as="geometry" />
        </mxCell>
        <mxCell id="tRqA5FIJqz56UV0_KaKd-19" value="&lt;font style=&quot;font-size: 23px;&quot; face=&quot;Georgia&quot; color=&quot;#fcfcfc&quot;&gt;4&lt;/font&gt;" style="rounded=0;whiteSpace=wrap;html=1;fillColor=#141414;strokeColor=#FF0505;strokeWidth=1;" vertex="1" parent="1">
          <mxGeometry x="420" y="260" width="120" height="60" as="geometry" />
        </mxCell>
        <mxCell id="tRqA5FIJqz56UV0_KaKd-20" value="&lt;font style=&quot;font-size: 23px;&quot; face=&quot;Georgia&quot; color=&quot;#fcfcfc&quot;&gt;1&lt;/font&gt;" style="rounded=0;whiteSpace=wrap;html=1;fillColor=#141414;strokeColor=#FF0505;strokeWidth=1;" vertex="1" parent="1">
          <mxGeometry x="540" y="260" width="120" height="60" as="geometry" />
        </mxCell>
        <mxCell id="tRqA5FIJqz56UV0_KaKd-21" value="&lt;font style=&quot;font-size: 23px;&quot; face=&quot;Georgia&quot; color=&quot;#fcfcfc&quot;&gt;Opt A&lt;/font&gt;" style="rounded=0;whiteSpace=wrap;html=1;fillColor=#141414;strokeColor=#9999FF;strokeWidth=1;" vertex="1" parent="1">
          <mxGeometry x="60" y="370" width="120" height="60" as="geometry" />
        </mxCell>
        <mxCell id="tRqA5FIJqz56UV0_KaKd-22" value="&lt;font style=&quot;font-size: 23px;&quot; face=&quot;Georgia&quot; color=&quot;#fcfcfc&quot;&gt;Opt B&lt;/font&gt;" style="rounded=0;whiteSpace=wrap;html=1;fillColor=#141414;strokeColor=#9999FF;strokeWidth=1;" vertex="1" parent="1">
          <mxGeometry x="180" y="370" width="120" height="60" as="geometry" />
        </mxCell>
        <mxCell id="tRqA5FIJqz56UV0_KaKd-23" value="&lt;font style=&quot;font-size: 23px;&quot; face=&quot;Georgia&quot; color=&quot;#fcfcfc&quot;&gt;Opt C&lt;/font&gt;" style="rounded=0;whiteSpace=wrap;html=1;fillColor=#141414;strokeColor=#9999FF;strokeWidth=1;" vertex="1" parent="1">
          <mxGeometry x="300" y="370" width="120" height="60" as="geometry" />
        </mxCell>
        <mxCell id="tRqA5FIJqz56UV0_KaKd-24" value="&lt;font style=&quot;font-size: 23px;&quot; face=&quot;Georgia&quot; color=&quot;#fcfcfc&quot;&gt;Opt D&lt;/font&gt;" style="rounded=0;whiteSpace=wrap;html=1;fillColor=#141414;strokeColor=#9999FF;strokeWidth=1;" vertex="1" parent="1">
          <mxGeometry x="420" y="370" width="120" height="60" as="geometry" />
        </mxCell>
        <mxCell id="tRqA5FIJqz56UV0_KaKd-25" value="&lt;font style=&quot;font-size: 23px;&quot; face=&quot;Georgia&quot; color=&quot;#fcfcfc&quot;&gt;Opt E&lt;/font&gt;" style="rounded=0;whiteSpace=wrap;html=1;fillColor=#141414;strokeColor=#9999FF;strokeWidth=1;" vertex="1" parent="1">
          <mxGeometry x="540" y="370" width="120" height="60" as="geometry" />
        </mxCell>
        <mxCell id="tRqA5FIJqz56UV0_KaKd-26" value="&lt;font style=&quot;font-size: 23px;&quot; face=&quot;Georgia&quot; color=&quot;#fcfcfc&quot;&gt;Opt B&lt;/font&gt;" style="rounded=0;whiteSpace=wrap;html=1;fillColor=#141414;strokeColor=#33FF33;strokeWidth=1;" vertex="1" parent="1">
          <mxGeometry x="60" y="480" width="120" height="60" as="geometry" />
        </mxCell>
        <mxCell id="tRqA5FIJqz56UV0_KaKd-27" value="&lt;font style=&quot;font-size: 23px;&quot; face=&quot;Georgia&quot; color=&quot;#fcfcfc&quot;&gt;Opt E&lt;/font&gt;" style="rounded=0;whiteSpace=wrap;html=1;fillColor=#141414;strokeColor=#33FF33;strokeWidth=1;" vertex="1" parent="1">
          <mxGeometry x="180" y="480" width="120" height="60" as="geometry" />
        </mxCell>
        <mxCell id="tRqA5FIJqz56UV0_KaKd-28" value="&lt;font style=&quot;font-size: 23px;&quot; face=&quot;Georgia&quot; color=&quot;#fcfcfc&quot;&gt;Opt C&lt;/font&gt;" style="rounded=0;whiteSpace=wrap;html=1;fillColor=#141414;strokeColor=#33FF33;strokeWidth=1;" vertex="1" parent="1">
          <mxGeometry x="300" y="480" width="120" height="60" as="geometry" />
        </mxCell>
        <mxCell id="tRqA5FIJqz56UV0_KaKd-29" value="&lt;font style=&quot;font-size: 23px;&quot; face=&quot;Georgia&quot; color=&quot;#fcfcfc&quot;&gt;Opt A&lt;/font&gt;" style="rounded=0;whiteSpace=wrap;html=1;fillColor=#141414;strokeColor=#33FF33;strokeWidth=1;" vertex="1" parent="1">
          <mxGeometry x="420" y="480" width="120" height="60" as="geometry" />
        </mxCell>
        <mxCell id="tRqA5FIJqz56UV0_KaKd-30" value="&lt;font style=&quot;font-size: 23px;&quot; face=&quot;Georgia&quot; color=&quot;#fcfcfc&quot;&gt;Opt D&lt;/font&gt;" style="rounded=0;whiteSpace=wrap;html=1;fillColor=#141414;strokeColor=#33FF33;strokeWidth=1;" vertex="1" parent="1">
          <mxGeometry x="540" y="480" width="120" height="60" as="geometry" />
        </mxCell>
        <mxCell id="tRqA5FIJqz56UV0_KaKd-31" value="" style="endArrow=classic;html=1;rounded=0;strokeColor=#FF6666;strokeWidth=3;" edge="1" parent="1" target="tRqA5FIJqz56UV0_KaKd-6">
          <mxGeometry width="50" height="50" relative="1" as="geometry">
            <mxPoint x="80" y="270" as="sourcePoint" />
            <mxPoint x="130" y="220" as="targetPoint" />
          </mxGeometry>
        </mxCell>
        <mxCell id="tRqA5FIJqz56UV0_KaKd-33" value="" style="endArrow=classic;html=1;rounded=0;strokeColor=#FF6666;strokeWidth=3;" edge="1" parent="1">
          <mxGeometry width="50" height="50" relative="1" as="geometry">
            <mxPoint x="210" y="270" as="sourcePoint" />
            <mxPoint x="243" y="140" as="targetPoint" />
          </mxGeometry>
        </mxCell>
        <mxCell id="tRqA5FIJqz56UV0_KaKd-34" value="" style="endArrow=classic;html=1;rounded=0;strokeColor=#FF6666;strokeWidth=3;" edge="1" parent="1">
          <mxGeometry width="50" height="50" relative="1" as="geometry">
            <mxPoint x="330" y="270" as="sourcePoint" />
            <mxPoint x="363" y="140" as="targetPoint" />
          </mxGeometry>
        </mxCell>
        <mxCell id="tRqA5FIJqz56UV0_KaKd-35" value="" style="endArrow=classic;html=1;rounded=0;strokeColor=#FF6666;strokeWidth=3;" edge="1" parent="1">
          <mxGeometry width="50" height="50" relative="1" as="geometry">
            <mxPoint x="450" y="270" as="sourcePoint" />
            <mxPoint x="483" y="140" as="targetPoint" />
          </mxGeometry>
        </mxCell>
        <mxCell id="tRqA5FIJqz56UV0_KaKd-36" value="" style="endArrow=classic;html=1;rounded=0;strokeColor=#FF6666;strokeWidth=3;" edge="1" parent="1">
          <mxGeometry width="50" height="50" relative="1" as="geometry">
            <mxPoint x="570" y="270" as="sourcePoint" />
            <mxPoint x="603" y="140" as="targetPoint" />
          </mxGeometry>
        </mxCell>
        <mxCell id="tRqA5FIJqz56UV0_KaKd-37" value="" style="endArrow=classic;html=1;rounded=0;strokeColor=#66B2FF;strokeWidth=3;entryX=0.5;entryY=1;entryDx=0;entryDy=0;" edge="1" parent="1" target="tRqA5FIJqz56UV0_KaKd-1">
          <mxGeometry width="50" height="50" relative="1" as="geometry">
            <mxPoint x="96.75" y="375" as="sourcePoint" />
            <mxPoint x="143.25" y="205" as="targetPoint" />
          </mxGeometry>
        </mxCell>
        <mxCell id="tRqA5FIJqz56UV0_KaKd-38" value="" style="endArrow=classic;html=1;rounded=0;strokeColor=#66B2FF;strokeWidth=3;entryX=0.5;entryY=1;entryDx=0;entryDy=0;" edge="1" parent="1">
          <mxGeometry width="50" height="50" relative="1" as="geometry">
            <mxPoint x="220" y="375" as="sourcePoint" />
            <mxPoint x="243.25" y="200" as="targetPoint" />
          </mxGeometry>
        </mxCell>
        <mxCell id="tRqA5FIJqz56UV0_KaKd-39" value="" style="endArrow=classic;html=1;rounded=0;strokeColor=#66B2FF;strokeWidth=3;entryX=0.5;entryY=1;entryDx=0;entryDy=0;" edge="1" parent="1">
          <mxGeometry width="50" height="50" relative="1" as="geometry">
            <mxPoint x="330" y="375" as="sourcePoint" />
            <mxPoint x="353.25" y="200" as="targetPoint" />
          </mxGeometry>
        </mxCell>
        <mxCell id="tRqA5FIJqz56UV0_KaKd-40" value="" style="endArrow=classic;html=1;rounded=0;strokeColor=#66B2FF;strokeWidth=3;entryX=0.5;entryY=1;entryDx=0;entryDy=0;" edge="1" parent="1">
          <mxGeometry width="50" height="50" relative="1" as="geometry">
            <mxPoint x="460" y="375" as="sourcePoint" />
            <mxPoint x="483.25" y="200" as="targetPoint" />
          </mxGeometry>
        </mxCell>
        <mxCell id="tRqA5FIJqz56UV0_KaKd-41" value="" style="endArrow=classic;html=1;rounded=0;strokeColor=#66B2FF;strokeWidth=3;entryX=0.5;entryY=1;entryDx=0;entryDy=0;" edge="1" parent="1">
          <mxGeometry width="50" height="50" relative="1" as="geometry">
            <mxPoint x="580" y="375" as="sourcePoint" />
            <mxPoint x="603.25" y="200" as="targetPoint" />
          </mxGeometry>
        </mxCell>
        <mxCell id="tRqA5FIJqz56UV0_KaKd-49" value="" style="endArrow=classic;html=1;rounded=0;strokeColor=#82b366;strokeWidth=3;fillColor=#d5e8d4;exitX=0.5;exitY=1;exitDx=0;exitDy=0;entryX=0.5;entryY=0;entryDx=0;entryDy=0;" edge="1" parent="1" source="tRqA5FIJqz56UV0_KaKd-21" target="tRqA5FIJqz56UV0_KaKd-29">
          <mxGeometry width="50" height="50" relative="1" as="geometry">
            <mxPoint x="710" y="435" as="sourcePoint" />
            <mxPoint x="770" y="590" as="targetPoint" />
          </mxGeometry>
        </mxCell>
        <mxCell id="tRqA5FIJqz56UV0_KaKd-50" value="" style="endArrow=classic;html=1;rounded=0;strokeColor=#82b366;strokeWidth=3;fillColor=#d5e8d4;exitX=0.5;exitY=1;exitDx=0;exitDy=0;entryX=0.5;entryY=0;entryDx=0;entryDy=0;" edge="1" parent="1" source="tRqA5FIJqz56UV0_KaKd-22" target="tRqA5FIJqz56UV0_KaKd-26">
          <mxGeometry width="50" height="50" relative="1" as="geometry">
            <mxPoint x="380" y="340" as="sourcePoint" />
            <mxPoint x="740" y="390" as="targetPoint" />
          </mxGeometry>
        </mxCell>
        <mxCell id="tRqA5FIJqz56UV0_KaKd-51" value="" style="endArrow=classic;html=1;rounded=0;strokeColor=#82b366;strokeWidth=3;fillColor=#d5e8d4;exitX=0.5;exitY=1;exitDx=0;exitDy=0;" edge="1" parent="1" source="tRqA5FIJqz56UV0_KaKd-23" target="tRqA5FIJqz56UV0_KaKd-28">
          <mxGeometry width="50" height="50" relative="1" as="geometry">
            <mxPoint x="370" y="350" as="sourcePoint" />
            <mxPoint x="730" y="400" as="targetPoint" />
          </mxGeometry>
        </mxCell>
        <mxCell id="tRqA5FIJqz56UV0_KaKd-52" value="" style="endArrow=classic;html=1;rounded=0;strokeColor=#82b366;strokeWidth=3;fillColor=#d5e8d4;exitX=0.5;exitY=1;exitDx=0;exitDy=0;entryX=0.5;entryY=0;entryDx=0;entryDy=0;" edge="1" parent="1" source="tRqA5FIJqz56UV0_KaKd-24" target="tRqA5FIJqz56UV0_KaKd-30">
          <mxGeometry width="50" height="50" relative="1" as="geometry">
            <mxPoint x="400" y="450" as="sourcePoint" />
            <mxPoint x="760" y="500" as="targetPoint" />
          </mxGeometry>
        </mxCell>
        <mxCell id="tRqA5FIJqz56UV0_KaKd-53" value="" style="endArrow=classic;html=1;rounded=0;strokeColor=#82b366;strokeWidth=3;fillColor=#d5e8d4;exitX=0.5;exitY=1;exitDx=0;exitDy=0;entryX=0.5;entryY=0;entryDx=0;entryDy=0;" edge="1" parent="1" source="tRqA5FIJqz56UV0_KaKd-25" target="tRqA5FIJqz56UV0_KaKd-27">
          <mxGeometry width="50" height="50" relative="1" as="geometry">
            <mxPoint x="160" y="470" as="sourcePoint" />
            <mxPoint x="520" y="520" as="targetPoint" />
          </mxGeometry>
        </mxCell>
      </root>
    </mxGraphModel>
  </diagram>
</mxfile>
